<?xml version="1.0" encoding="iso-8859-1"?>
<!-- Generator: Adobe Illustrator 19.0.0, SVG Export Plug-In . SVG Version: 6.00 Build 0)  -->
<svg xmlns="http://www.w3.org/2000/svg" xmlns:xlink="http://www.w3.org/1999/xlink" version="1.1" id="Capa_1" x="0px" y="0px" viewBox="0 0 488 488" style="enable-background:new 0 0 488 488;" xml:space="preserve" width="512px" height="512px">
<g>
	<g>
		<path d="M244,0C109.2,0,0,109.2,0,244s109.2,244,244,244s244-109.2,244-244S378.8,0,244,0z M348.9,290.5h-58.5V349    c0,25.7-20.8,46.5-46.5,46.5l0,0c-25.7,0-46.5-20.8-46.5-46.5v-58.5h-58.5c-25.7,0-46.5-20.8-46.5-46.5l0,0    c0-25.7,20.8-46.5,46.5-46.5h58.5V139c0-25.7,20.8-46.5,46.5-46.5l0,0c25.7,0,46.5,20.8,46.5,46.5v58.5h58.5    c25.7,0,46.5,20.8,46.5,46.5l0,0C395.4,269.7,374.6,290.5,348.9,290.5z" fill="#49abb3"/>
	</g>
</g>
<g>
</g>
<g>
</g>
<g>
</g>
<g>
</g>
<g>
</g>
<g>
</g>
<g>
</g>
<g>
</g>
<g>
</g>
<g>
</g>
<g>
</g>
<g>
</g>
<g>
</g>
<g>
</g>
<g>
</g>
</svg>
